<svg xmlns="http://www.w3.org/2000/svg" viewBox="0 0 24 24"><path d="M12 1.5C10.9629 1.5 10.1016 2.22656 9.84375 3.1875C9.58008 3.0791 9.30176 3 9 3C7.7666 3 6.75 4.0166 6.75 5.25V13.3125L6.09375 12.6562C5.2207 11.7832 3.7793 11.7832 2.90625 12.6562C2.0332 13.5293 2.0332 14.9707 2.90625 15.8438L7.99219 20.9297C8.87402 21.8086 10.0928 22.5 11.5312 22.5H15C17.8916 22.5 20.25 20.1416 20.25 17.25V8.25C20.25 7.0166 19.2334 6 18 6C17.7363 6 17.4873 6.05566 17.25 6.14062V5.25C17.25 4.0166 16.2334 3 15 3C14.6982 3 14.4199 3.0791 14.1562 3.1875C13.8984 2.22656 13.0371 1.5 12 1.5ZM12 3C12.4248 3 12.75 3.3252 12.75 3.75V11.25H14.25V5.25C14.25 4.8252 14.5752 4.5 15 4.5C15.4248 4.5 15.75 4.8252 15.75 5.25V11.25H17.25V8.25C17.25 7.8252 17.5752 7.5 18 7.5C18.4248 7.5 18.75 7.8252 18.75 8.25V17.25C18.75 19.3301 17.0801 21 15 21H11.5312C10.5762 21 9.75586 20.5342 9.07031 19.8516L3.96094 14.7891C3.66211 14.4902 3.66211 14.0098 3.96094 13.7109C4.25977 13.4121 4.74023 13.4121 5.03906 13.7109L6.96094 15.6562L8.25 16.9453V5.25C8.25 4.8252 8.5752 4.5 9 4.5C9.4248 4.5 9.75 4.8252 9.75 5.25V11.25H11.25V3.75C11.25 3.3252 11.5752 3 12 3Z" fill="#05324b"></path></svg>