<svg xmlns="http://www.w3.org/2000/svg" viewBox="0 0 24 24"><path d="M8.625 4.5C7.18359 4.5 6 5.68359 6 7.125C6 8.56641 7.18359 9.75 8.625 9.75C10.0664 9.75 11.25 8.56641 11.25 7.125C11.25 5.68359 10.0664 4.5 8.625 4.5ZM15.375 4.5C13.9336 4.5 12.75 5.68359 12.75 7.125C12.75 8.56641 13.9336 9.75 15.375 9.75C16.8164 9.75 18 8.56641 18 7.125C18 5.68359 16.8164 4.5 15.375 4.5ZM8.625 6C9.25488 6 9.75 6.49512 9.75 7.125C9.75 7.75488 9.25488 8.25 8.625 8.25C7.99512 8.25 7.5 7.75488 7.5 7.125C7.5 6.49512 7.99512 6 8.625 6ZM15.375 6C16.0049 6 16.5 6.49512 16.5 7.125C16.5 7.75488 16.0049 8.25 15.375 8.25C14.7451 8.25 14.25 7.75488 14.25 7.125C14.25 6.49512 14.7451 6 15.375 6ZM5.25 9C3.60059 9 2.25 10.3506 2.25 12C2.25 12.835 2.60742 13.5879 3.16406 14.1328C2.16504 14.8096 1.5 15.9609 1.5 17.25H3C3 15.999 3.99902 15 5.25 15C6.50098 15 7.5 15.999 7.5 17.25H9C9 15.9609 8.33496 14.8096 7.33594 14.1328C7.89258 13.5879 8.25 12.835 8.25 12C8.25 10.3506 6.89941 9 5.25 9ZM9 17.25C8.53125 17.877 8.25 18.665 8.25 19.5H9.75C9.75 18.249 10.749 17.25 12 17.25C13.251 17.25 14.25 18.249 14.25 19.5H15.75C15.75 18.665 15.4688 17.877 15 17.25C14.7451 16.9102 14.4375 16.6201 14.0859 16.3828C14.6426 15.8379 15 15.085 15 14.25C15 12.6006 13.6494 11.25 12 11.25C10.3506 11.25 9 12.6006 9 14.25C9 15.085 9.35742 15.8379 9.91406 16.3828C9.5625 16.6201 9.25488 16.9102 9 17.25ZM15 17.25H16.5C16.5 15.999 17.499 15 18.75 15C20.001 15 21 15.999 21 17.25H22.5C22.5 15.9609 21.835 14.8096 20.8359 14.1328C21.3926 13.5879 21.75 12.835 21.75 12C21.75 10.3506 20.3994 9 18.75 9C17.1006 9 15.75 10.3506 15.75 12C15.75 12.835 16.1074 13.5879 16.6641 14.1328C15.665 14.8096 15 15.9609 15 17.25ZM5.25 10.5C6.08789 10.5 6.75 11.1621 6.75 12C6.75 12.8379 6.08789 13.5 5.25 13.5C4.41211 13.5 3.75 12.8379 3.75 12C3.75 11.1621 4.41211 10.5 5.25 10.5ZM18.75 10.5C19.5879 10.5 20.25 11.1621 20.25 12C20.25 12.8379 19.5879 13.5 18.75 13.5C17.9121 13.5 17.25 12.8379 17.25 12C17.25 11.1621 17.9121 10.5 18.75 10.5ZM12 12.75C12.8379 12.75 13.5 13.4121 13.5 14.25C13.5 15.0879 12.8379 15.75 12 15.75C11.1621 15.75 10.5 15.0879 10.5 14.25C10.5 13.4121 11.1621 12.75 12 12.75Z" fill="#05324b"></path></svg>