<svg xmlns="http://www.w3.org/2000/svg" viewBox="0 0 24 24"><path d="M9.75 2.25C6.8584 2.25 4.5 4.6084 4.5 7.5C4.5 9.30762 5.42285 10.9131 6.82031 11.8594C4.14551 13.0078 2.25 15.6621 2.25 18.75H3.75C3.75 15.4277 6.42773 12.75 9.75 12.75C11.3584 12.75 12.7969 13.4092 13.875 14.4375L10.3359 17.9766L10.2891 18.2109L9.77344 20.8594L9.53906 21.9609L10.6406 21.7266L13.2891 21.2109L13.5234 21.1641L21.0938 13.5938C21.9639 12.7236 21.9639 11.2764 21.0938 10.4062C20.6572 9.96973 20.0771 9.75 19.5 9.75C18.9346 9.75 18.3633 9.96387 17.9297 10.3828L14.9531 13.3594C14.2998 12.7324 13.5264 12.2197 12.6797 11.8594C14.0771 10.9131 15 9.30762 15 7.5C15 4.6084 12.6416 2.25 9.75 2.25ZM9.75 3.75C11.8301 3.75 13.5 5.41992 13.5 7.5C13.5 9.58008 11.8301 11.25 9.75 11.25C7.66992 11.25 6 9.58008 6 7.5C6 5.41992 7.66992 3.75 9.75 3.75ZM19.5 11.25C19.6904 11.25 19.8896 11.3115 20.0391 11.4609C20.3379 11.7598 20.3379 12.2168 20.0391 12.5156L12.7734 19.7812L11.4375 20.0625L11.7188 18.7266L18.9844 11.4609C19.1338 11.3115 19.3096 11.25 19.5 11.25Z" fill="#05324b"></path></svg>